<svg width="24" height="25" viewBox="0 0 24 25" fill="none" xmlns="http://www.w3.org/2000/svg">
<path fill-rule="evenodd" clip-rule="evenodd" d="M2 12.4898C2 6.85713 6.48 2.28571 12 2.28571C17.52 2.28571 22 6.85713 22 12.4898C22 18.1224 17.52 22.6939 12 22.6939C6.48 22.6939 2 18.1224 2 12.4898ZM10 14.7041L15.88 8.70407C16.27 8.30611 16.91 8.30611 17.3 8.70407C17.69 9.10203 17.69 9.74489 17.3 10.1428L10.71 16.8673C10.32 17.2653 9.69 17.2653 9.3 16.8673L6.71 14.2245C6.32 13.8265 6.32 13.1837 6.71 12.7857C6.89683 12.5946 7.15048 12.4873 7.415 12.4873C7.67952 12.4873 7.93317 12.5946 8.12 12.7857L10 14.7041Z" fill="#4CAF50"/>
</svg>
